<svg width="580" height="400" xmlns="http://www.w3.org/2000/svg">
 <!-- Created with Method Draw - http://github.com/duopixel/Method-Draw/ -->
 <g>
  <title>background</title>
  <rect fill="#fff" id="canvas_background" height="402" width="582" y="-1" x="-1"/>
  <g display="none" overflow="visible" y="0" x="0" height="100%" width="100%" id="canvasGrid">
   <rect fill="url(#gridpattern)" stroke-width="0" y="0" x="0" height="100%" width="100%"/>
  </g>
 </g>
 <g>
  <title>Layer 1</title>
  <path d="m143.5,78.4375c-1,0 -2.146805,-0.136749 -4,2c-3.276016,3.777267 -4.415894,5.761078 -6,9c-2.778702,5.681442 -2.366547,12.022476 -2,15c0.503769,4.092216 8.467163,10.085655 15,14c5.492615,3.291069 7.558029,5.077644 13,9c1.147263,0.826904 3,5 3,10c0,4 -1.695297,12.35054 -12,21c-7.225891,6.065186 -29.268707,11.010742 -42,15c-10.277596,3.220413 -19,6 -25,8l-1,1" id="svg_1" stroke-width="1.5" stroke="#000" fill="none"/>
  <path d="m239.5,94.4375c2,2 7.24913,7.028748 14,17c8.775238,12.961304 12.727875,27.521851 19,41c5.861328,12.595428 10,21 12,25c1,2 2.173096,2.147263 3,1c2.614899,-3.627991 4.721588,-16.430237 10,-30c5.674377,-14.587708 12.761414,-25.14183 17,-32c1.895538,-3.067062 5,-9 9,-17l1,-2l1,-4l1,0" id="svg_2" stroke-width="1.5" stroke="#000" fill="none"/>
  <path d="m492.5,49.4375c-3,0 -6.159271,0.610649 -9,2c-3.238922,1.584103 -8.041321,3.847229 -12,5c-6.072327,1.768269 -13.113068,3.688263 -19,6c-11.246948,4.416565 -15.493469,7.878555 -16,11c-1.281464,7.896698 5.281464,17.918282 14,24c10.276703,7.16864 15.937958,9.498291 22,10c2.989777,0.247444 7.5914,1.783363 13,-1c7.54483,-3.882706 9.498291,-7.937965 10,-14c0.577362,-6.976151 0.412415,-12.017036 0,-17c-0.501709,-6.062035 -2.496216,-10.907784 -3,-15c-0.366547,-2.977524 -0.307465,-6.813992 1,-5c1.653809,2.29454 5,10 5,22c0,17 -0.657227,36.112022 -8,58c-5.733734,17.091644 -17.738098,47.745621 -29,60c-11.098083,12.076126 -25.761841,18.491608 -40,20c-11.933228,1.264206 -20.034058,0.689758 -27,0c-5.074219,-0.502441 -14.354614,-5.481567 -18,-18c-1.957123,-6.72084 -0.234924,-17.147522 8,-30c5.835449,-9.107544 11.587067,-14.731247 20,-19c4.802338,-2.436722 9.907776,-3.496231 14,-4c2.977509,-0.366547 5,0 6,0c2,0 3,0 4,0l1,0" id="svg_4" stroke-width="1.5" stroke="#000" fill="none"/>
 </g>
</svg>